<?xml version="1.0" encoding="UTF-8"?>
<svg width="122px" height="24px" viewBox="0 0 122 24" version="1.1" xmlns="http://www.w3.org/2000/svg" xmlns:xlink="http://www.w3.org/1999/xlink">
    <!-- Generator: Sketch 52.2 (67145) - http://www.bohemiancoding.com/sketch -->
    <title>JonathanNabais</title>
    <desc>Created with Sketch.</desc>
    <g id="Page-1" stroke="none" stroke-width="1" fill="none" fill-rule="evenodd">
        <g id="logo" transform="translate(-1.000000, 0.000000)" fill="#FFFFFF" fill-rule="nonzero">
            <path d="M6.74361207,23.02288 C8.87582045,23.02288 10.4397753,22.4076457 11.4354764,21.177176 C12.4311775,19.9467074 12.929028,18.1311383 12.929028,15.7304686 L12.929028,0.934709714 L10.2436524,0.934709714 L10.2436524,15.6551337 C10.2436524,18.8493303 9.04679959,20.4464286 6.65309374,20.4464286 C5.91888985,20.4464286 5.18468618,20.243024 4.45048229,19.836216 C3.71627828,19.429408 3.0625352,18.8995531 2.48925281,18.2466514 L0.980614738,20.220424 C1.704761,21.1244423 2.58982877,21.8175223 3.6358177,22.2996651 C4.68180663,22.781808 5.71773816,23.02288 6.74361207,23.02288 Z M22.8743053,23.0530137 C24.342713,23.0530137 25.6652858,22.7315851 26.8420234,22.088728 C28.0187611,21.4458709 28.9415447,20.5368309 29.6103742,19.3616069 C30.2792037,18.186384 30.6136185,16.8554686 30.6136185,15.3688617 C30.6136185,13.8722103 30.2792037,12.5337611 29.6103742,11.3535154 C28.9415447,10.1732697 28.0187611,9.26171886 26.8420234,8.61886171 C25.6652858,7.97600457 24.342713,7.654576 22.8743053,7.654576 C21.7277404,7.654576 20.6666651,7.85295771 19.691079,8.24972114 C18.715493,8.64648457 17.8932853,9.18889486 17.2244559,9.87695314 C16.5556264,10.5650114 16.0326317,11.3836491 15.6554723,12.3328686 C15.2783128,13.2820869 15.089733,14.2940846 15.089733,15.3688617 C15.089733,16.4436389 15.2783128,17.4506137 15.6554723,18.3897874 C16.0326317,19.3289623 16.5556264,20.1425783 17.2244559,20.8306366 C17.8932853,21.5186937 18.715493,22.0611051 19.691079,22.4578686 C20.6666651,22.854632 21.7277404,23.0530137 22.8743053,23.0530137 Z M22.8743053,20.747768 C21.8584892,20.747768 20.9482774,20.506696 20.1436704,20.0245531 C19.3390636,19.5424103 18.7180075,18.8920206 18.2805025,18.0733817 C17.8429974,17.2547429 17.6242449,16.3532366 17.6242449,15.3688617 C17.6242449,14.3744423 17.840483,13.4654023 18.2729593,12.6417406 C18.7054356,11.81808 19.3239772,11.1651783 20.1285841,10.6830354 C20.933191,10.2008926 21.8484314,9.95982171 22.8743053,9.95982171 C23.8398337,9.95982171 24.7173582,10.1858263 25.5068787,10.6378343 C26.2963993,11.0898434 26.922484,11.7301897 27.385133,12.5588731 C27.8477822,13.3875554 28.0791066,14.3242183 28.0791066,15.3688617 C28.0791066,16.4034594 27.8477822,17.3325897 27.385133,18.1562503 C26.922484,18.9799109 26.2938849,19.6177451 25.4993355,20.0697543 C24.7047861,20.5217634 23.829776,20.747768 22.8743053,20.747768 Z M46.155943,22.8722103 L46.155943,13.9525669 C46.155943,11.8632811 45.6756932,10.2912949 44.7151937,9.23660686 C43.7546939,8.18192 42.4346357,7.654576 40.7550187,7.654576 C39.6285689,7.654576 38.5926376,7.893136 37.6472244,8.37025714 C36.701811,8.84737714 35.9173194,9.53292457 35.293749,10.4268971 L35.2484899,10.4268971 L35.2484899,7.83537943 L32.7441507,7.83537943 L32.7441507,22.8571429 L35.2484899,22.8571429 L35.2484899,15.3537943 C35.2484899,13.686384 35.6784517,12.368024 36.5383753,11.3987166 C37.3982991,10.429408 38.5423495,9.94475429 39.9705269,9.94475429 C40.5438094,9.94475429 41.0466886,10.025112 41.479165,10.1858263 C41.9116413,10.3465406 42.2938296,10.6077006 42.6257299,10.9693086 C42.9576303,11.3309154 43.2115842,11.81808 43.3875921,12.4308034 C43.5636,13.0435269 43.6516038,13.781808 43.6516038,14.6456469 L43.6516038,22.8722103 L46.155943,22.8722103 Z M55.4223332,23.0530137 C56.5186104,23.0530137 57.5168254,22.8270091 58.4169793,22.375 C59.3171332,21.9229909 60.0739667,21.2901783 60.6874797,20.4765623 L60.7327391,20.4765623 L60.7327391,22.8571429 L63.1314731,22.8571429 L63.1314731,7.83537943 L60.6271346,7.83537943 L60.6271346,10.0652903 L60.5667884,10.0652903 C59.943219,9.281808 59.1863855,8.684152 58.2962891,8.27232114 C57.4061916,7.86049143 56.4431784,7.654576 55.4072463,7.654576 C54.0092425,7.654576 52.7470146,7.99358286 51.6205652,8.67159543 C50.4941154,9.34960914 49.616591,10.2812503 48.9879918,11.4665177 C48.3593925,12.6517863 48.0450931,13.9776789 48.0450931,15.4441966 C48.0450931,16.5691966 48.2361872,17.6088171 48.6183755,18.5630583 C49.0005637,19.5172994 49.5210438,20.3208709 50.1798159,20.9737726 C50.8385878,21.6266743 51.6205652,22.13644 52.525748,22.5030697 C53.4309314,22.8696983 54.3964597,23.0530137 55.4223332,23.0530137 Z M55.6637147,20.7628343 C54.1550771,20.7628343 52.9330804,20.2631143 51.9977247,19.263672 C51.0623691,18.2642297 50.5946913,16.9960937 50.5946913,15.4592629 C50.5946913,13.8119417 51.0799699,12.4810263 52.050527,11.4665177 C53.0210839,10.4520091 54.2355372,9.94475429 55.6938884,9.94475429 C56.3979191,9.94475429 57.0617196,10.0878903 57.6852902,10.3741634 C58.3088607,10.6604354 58.8419125,11.0496651 59.2844466,11.5418526 C59.7269807,12.03404 60.0764819,12.6191406 60.3329503,13.2971543 C60.5894187,13.9751669 60.7176523,14.6958709 60.7176523,15.4592629 C60.7176523,16.2327006 60.5818752,16.9534046 60.31032,17.6213726 C60.038766,18.2893417 59.6716638,18.8518411 59.2090146,19.3088731 C58.7463655,19.765904 58.2082844,20.1224891 57.5947714,20.3786274 C56.9812595,20.6347657 56.337574,20.7628343 55.6637147,20.7628343 Z M70.2706842,23.0530137 C70.823851,23.0530137 71.341817,23.0053017 71.8245812,22.9098777 C72.3073454,22.8144537 72.6945626,22.7039623 72.9862328,22.5784046 C73.2779019,22.4528457 73.584659,22.2996651 73.9065018,22.1188617 L73.2427012,19.934152 C72.3475754,20.4464286 71.5027384,20.7025669 70.708189,20.7025669 C70.0242733,20.7025669 69.5465373,20.4891177 69.2749833,20.0622206 C69.0034281,19.6353234 68.867651,18.9497771 68.867651,18.0055806 L68.867651,10.0050229 L73.8461567,10.0050229 L73.8461567,7.83537943 L68.867651,7.83537943 L68.867651,2.42633943 L66.3633114,2.69754514 L66.3633114,7.83537943 L64.4473415,7.83537943 L64.4473415,10.0050229 L66.3633114,10.0050229 L66.3633114,18.3822549 C66.3633114,21.4960937 67.6657694,23.0530137 70.2706842,23.0530137 Z M89.1018399,22.8722103 L89.1018399,13.8470983 C89.1018399,11.7779017 88.6165605,10.2285154 87.6460039,9.19893943 C86.6754463,8.16936343 85.3403016,7.654576 83.6405701,7.654576 C83.0672871,7.654576 82.5166344,7.70982171 81.9886109,7.820312 C81.4605873,7.93080343 80.9602222,8.09654057 80.4875167,8.31752229 C80.01481,8.538504 79.5773041,8.81473257 79.1750012,9.14620571 C78.7726971,9.47767886 78.4156536,9.85435314 78.1038684,10.2762274 L78.0435221,10.2762274 L78.0435221,0.136161143 L75.5391836,0.136161143 L75.5391836,22.8571429 L78.0435221,22.8571429 L78.0435221,15.2935269 C78.0435221,13.616072 78.4785128,12.3052457 79.3484942,11.3610491 C80.2184756,10.4168526 81.4077856,9.94475429 82.9164233,9.94475429 C85.3704742,9.94475429 86.5975002,11.4815851 86.5975002,14.5552457 L86.5975002,22.8722103 L89.1018399,22.8722103 Z M98.3531429,23.0530137 C99.4494201,23.0530137 100.447635,22.8270091 101.34779,22.375 C102.247944,21.9229909 103.004778,21.2901783 103.618289,20.4765623 L103.663549,20.4765623 L103.663549,22.8571429 L106.062284,22.8571429 L106.062284,7.83537943 L103.557944,7.83537943 L103.557944,10.0652903 L103.497599,10.0652903 C102.874029,9.281808 102.117195,8.684152 101.227099,8.27232114 C100.337002,7.86049143 99.3739882,7.654576 98.3380572,7.654576 C96.9400523,7.654576 95.6778255,7.99358286 94.5513757,8.67159543 C93.4249249,9.34960914 92.5474012,10.2812503 91.9188013,11.4665177 C91.2902026,12.6517863 90.9759032,13.9776789 90.9759032,15.4441966 C90.9759032,16.5691966 91.1669972,17.6088171 91.5491851,18.5630583 C91.9313741,19.5172994 92.4518542,20.3208709 93.1106255,20.9737726 C93.7693979,21.6266743 94.5513757,22.13644 95.4565579,22.5030697 C96.3617411,22.8696983 97.3272695,23.0530137 98.3531429,23.0530137 Z M98.5945256,20.7628343 C97.0858868,20.7628343 95.8638901,20.2631143 94.9285343,19.263672 C93.9931796,18.2642297 93.5255012,16.9960937 93.5255012,15.4592629 C93.5255012,13.8119417 94.0107806,12.4810263 94.9813371,11.4665177 C95.9518936,10.4520091 97.1663481,9.94475429 98.6246981,9.94475429 C99.3287288,9.94475429 99.9925294,10.0878903 100.6161,10.3741634 C101.23967,10.6604354 101.772723,11.0496651 102.215256,11.5418526 C102.65779,12.03404 103.007292,12.6191406 103.26376,13.2971543 C103.520228,13.9751669 103.648463,14.6958709 103.648463,15.4592629 C103.648463,16.2327006 103.512685,16.9534046 103.241131,17.6213726 C102.969576,18.2893417 102.602474,18.8518411 102.139824,19.3088731 C101.677175,19.765904 101.139095,20.1224891 100.525582,20.3786274 C99.9120692,20.6347657 99.2683837,20.7628343 98.5945256,20.7628343 Z M122.358928,22.8722103 L122.358928,13.9525669 C122.358928,11.8632811 121.878677,10.2912949 120.918177,9.23660686 C119.957678,8.18192 118.637619,7.654576 116.958003,7.654576 C115.831553,7.654576 114.795622,7.893136 113.850209,8.37025714 C112.904795,8.84737714 112.120304,9.53292457 111.496733,10.4268971 L111.451474,10.4268971 L111.451474,7.83537943 L108.947135,7.83537943 L108.947135,22.8571429 L111.451474,22.8571429 L111.451474,15.3537943 C111.451474,13.686384 111.881436,12.368024 112.74136,11.3987166 C113.601283,10.429408 114.745333,9.94475429 116.173511,9.94475429 C116.746794,9.94475429 117.249673,10.025112 117.682149,10.1858263 C118.114625,10.3465406 118.496814,10.6077006 118.828714,10.9693086 C119.160615,11.3309154 119.414568,11.81808 119.590576,12.4308034 C119.766584,13.0435269 119.854588,13.781808 119.854588,14.6456469 L119.854588,22.8722103 L122.358928,22.8722103 Z" id="JonathanNabais"></path>
        </g>
    </g>
</svg>